<svg width="92" height="42" viewBox="0 0 92 42" fill="none" xmlns="http://www.w3.org/2000/svg">
<rect width="92" height="42" rx="20" fill="#32073F"/>
<path d="M53.1001 23.6749L51.6001 22.1666V18.4499C51.6201 17.0698 51.14 15.729 50.2486 14.6752C49.3571 13.6214 48.1145 12.9257 46.7501 12.7166C45.9583 12.6123 45.1534 12.6781 44.389 12.9096C43.6246 13.141 42.9184 13.5329 42.3174 14.0589C41.7165 14.5849 41.2346 15.2331 40.904 15.9601C40.5734 16.6871 40.4016 17.4763 40.4001 18.2749V22.1666L38.9001 23.6749C38.7117 23.8665 38.584 24.1093 38.5328 24.3731C38.4817 24.6369 38.5094 24.9099 38.6125 25.158C38.7157 25.4061 38.8897 25.6182 39.1128 25.768C39.3359 25.9178 39.5981 25.9984 39.8668 25.9999H42.6668V26.2833C42.7057 27.1293 43.0784 27.9253 43.7032 28.497C44.3281 29.0687 45.154 29.3694 46.0001 29.3333C46.8463 29.3694 47.6722 29.0687 48.297 28.497C48.9218 27.9253 49.2945 27.1293 49.3335 26.2833V25.9999H52.1335C52.4022 25.9984 52.6644 25.9178 52.8875 25.768C53.1106 25.6182 53.2846 25.4061 53.3877 25.158C53.4909 24.9099 53.5186 24.6369 53.4675 24.3731C53.4163 24.1093 53.2886 23.8665 53.1001 23.6749ZM47.6668 26.2833C47.6206 26.6841 47.4215 27.0516 47.111 27.3093C46.8006 27.567 46.4026 27.695 46.0001 27.6666C45.5977 27.695 45.1997 27.567 44.8892 27.3093C44.5788 27.0516 44.3797 26.6841 44.3335 26.2833V25.9999H47.6668V26.2833ZM40.5918 24.3333L41.5751 23.3499C41.7311 23.1949 41.8549 23.0105 41.9392 22.8074C42.0236 22.6043 42.067 22.3865 42.0668 22.1666V18.2749C42.0673 17.7128 42.188 17.1572 42.4208 16.6455C42.6536 16.1338 42.9932 15.6779 43.4168 15.3083C43.8347 14.9297 44.3298 14.6464 44.8679 14.478C45.4061 14.3097 45.9744 14.2603 46.5335 14.3333C47.4972 14.4897 48.372 14.9891 48.9967 15.7394C49.6215 16.4897 49.9541 17.4405 49.9335 18.4166V22.1666C49.9322 22.3859 49.9742 22.6034 50.0572 22.8064C50.1401 23.0095 50.2623 23.1942 50.4168 23.3499L51.4085 24.3333H40.5918Z" fill="white"/>
</svg>
