<svg xmlns="http://www.w3.org/2000/svg" width="100%" height="auto" viewBox="0 0 535 466" version="1.1" preserveAspectRatio="xMidYMid meet" style="max-width: 100%; max-height: 70vh;">
	<path d="M 215 24.080 C 186.363 28.487, 167.011 35.724, 141.082 51.724 C 126.846 60.509, 124.389 62.525, 110.716 76.647 C 95.226 92.645, 89.620 100.439, 80.610 118.500 C 70.639 138.488, 68.014 146.261, 61.941 173.764 C 61.424 176.110, 61 185.652, 61 194.969 L 61 211.909 64.250 212.491 C 66.038 212.811, 89.100 212.944, 115.500 212.787 L 163.500 212.500 164.204 200 C 165.067 184.661, 166.146 179.844, 171.125 169.092 C 180.264 149.356, 195.137 136.744, 218.565 128.861 C 225.486 126.533, 225.622 126.528, 286.854 126.221 L 348.208 125.913 399.104 75.230 C 427.097 47.355, 450 24.199, 450 23.774 C 450 22.720, 221.906 23.017, 215 24.080 M 431.200 92.893 C 407.715 116.484, 385.125 139.220, 381 143.417 L 373.500 151.048 372.950 213.274 C 372.406 274.961, 372.381 275.556, 370.101 282 C 361.308 306.854, 345.493 322.725, 321.157 331.114 C 316.509 332.717, 303.497 334.476, 290.500 335.259 L 286.500 335.500 286.241 386.750 L 285.982 438 296.779 438 C 311.141 438, 334.753 435.019, 345 431.912 C 349.737 430.475, 358.624 427.157, 363.500 425.004 C 365.700 424.032, 369.741 422.479, 372.479 421.553 C 378.769 419.425, 389.729 413.772, 397.500 408.648 C 415.540 396.752, 441.060 370.168, 449.453 354.530 C 450.643 352.313, 452.735 348.700, 454.104 346.500 C 465.795 327.705, 473.328 302.470, 476.046 273 C 477.368 258.657, 476.224 50, 474.822 50 C 474.315 50, 454.685 69.302, 431.200 92.893 M 216.500 58.209 C 214.300 58.735, 207.550 60.307, 201.500 61.701 C 177.331 67.270, 151.958 82.368, 132.835 102.559 C 125.498 110.305, 119.837 117.433, 116.995 122.500 C 105.131 143.659, 98.099 162.065, 97.700 173 L 97.500 178.500 114.391 178.500 C 133.150 178.500, 131.865 178.991, 134.020 171 C 135.619 165.072, 138.967 156.245, 141.036 152.500 C 146.067 143.395, 154.581 130.858, 158.780 126.371 C 166.261 118.378, 181.517 107.368, 192.500 102.035 C 210.950 93.076, 220.663 92, 283.062 92 L 332.979 92 338.739 86.851 C 343.896 82.241, 361.486 64.613, 366.405 59.125 L 368.310 57 294.405 57.126 C 251.312 57.200, 218.832 57.652, 216.500 58.209 M 424.701 147.583 L 408 164.167 408 211.123 C 408 269.427, 406.929 281.056, 399.942 298.645 C 391.421 320.097, 376.247 339.146, 359.500 349.414 C 355.100 352.112, 350.825 354.880, 350 355.567 C 347.767 357.424, 332.333 363.402, 325.750 364.959 L 320 366.319 320 384.101 C 320 393.880, 320.337 402.089, 320.750 402.342 C 321.382 402.730, 328.918 400.968, 343.500 397.023 C 351.611 394.828, 358.232 391.839, 374.840 382.876 C 378.736 380.772, 396.377 366.660, 401.530 361.524 C 416.861 346.243, 430.282 323.723, 436.612 302.659 C 442.218 283.999, 442.207 284.189, 442.709 204.750 C 442.978 162.155, 442.801 131, 442.288 131 C 441.800 131, 433.886 138.463, 424.701 147.583 M 266.500 174.005 C 235.107 179.697, 217.561 206.107, 222.986 239.500 C 225.276 253.589, 237.220 269.737, 250.500 276.699 C 268.752 286.266, 294.318 284.403, 311.204 272.276 C 316.003 268.829, 325 257.873, 325 255.476 C 325 254.158, 308.296 244, 306.129 244 C 305.505 244, 303.429 245.733, 301.516 247.851 C 299.602 249.969, 295.216 253.225, 291.768 255.087 C 286.008 258.197, 284.811 258.467, 277 258.416 C 267.128 258.352, 263.093 256.719, 255.746 249.817 C 247.433 242.005, 244.872 229.282, 249.085 216.718 C 252.590 206.268, 258.296 200.633, 268.514 197.534 C 275.406 195.443, 280.444 195.609, 287.722 198.165 C 293.943 200.350, 300.074 205.207, 304.593 211.531 L 306.685 214.459 315.093 209.045 C 326.823 201.492, 326.557 201.798, 324.380 198.366 C 316.167 185.415, 309.393 180.091, 295.702 175.830 C 288.594 173.618, 273.753 172.690, 266.500 174.005 M 61 342.996 L 61 438.010 155.750 437.755 L 250.500 437.500 250.500 386 L 250.500 334.500 207.761 334.239 L 165.021 333.979 164.761 291.239 L 164.500 248.500 112.750 248.241 L 61 247.982 61 342.996 M 95.459 283.250 C 95.196 283.938, 95.098 311.275, 95.241 344 L 95.500 403.500 156 403.500 L 216.500 403.500 216.500 386 L 216.500 368.500 173.864 368.239 L 131.228 367.979 130.628 365.739 C 130.297 364.508, 130.021 345.163, 130.014 322.750 L 130 282 112.969 282 C 100.265 282, 95.816 282.318, 95.459 283.250" stroke="none" fill="black" fill-rule="evenodd"/>
</svg>