<svg width="178" height="113" viewBox="0 0 178 113" fill="none" xmlns="http://www.w3.org/2000/svg">
<g filter="url(#filter0_d_267_3281)">
<rect y="0.625" width="175" height="109.375" rx="15" fill="#211951"/>
<path d="M45.0011 88.369C45.0011 87.077 45.2924 85.918 45.8751 84.892C46.4577 83.8533 47.2494 83.0427 48.2501 82.46C49.2634 81.8773 50.3844 81.586 51.6131 81.586C53.0571 81.586 54.3174 81.9343 55.3941 82.631C56.4707 83.3277 57.2561 84.3157 57.7501 85.595H55.6791C55.3117 84.797 54.7797 84.1827 54.0831 83.752C53.3991 83.3213 52.5757 83.106 51.6131 83.106C50.6884 83.106 49.8587 83.3213 49.1241 83.752C48.3894 84.1827 47.8131 84.797 47.3951 85.595C46.9771 86.3803 46.7681 87.305 46.7681 88.369C46.7681 89.4203 46.9771 90.345 47.3951 91.143C47.8131 91.9283 48.3894 92.5363 49.1241 92.967C49.8587 93.3977 50.6884 93.613 51.6131 93.613C52.5757 93.613 53.3991 93.404 54.0831 92.986C54.7797 92.5553 55.3117 91.941 55.6791 91.143H57.7501C57.2561 92.4097 56.4707 93.3913 55.3941 94.088C54.3174 94.772 53.0571 95.114 51.6131 95.114C50.3844 95.114 49.2634 94.829 48.2501 94.259C47.2494 93.6763 46.4577 92.872 45.8751 91.846C45.2924 90.82 45.0011 89.661 45.0011 88.369ZM66.3278 95.133C65.0992 95.133 63.9782 94.848 62.9648 94.278C61.9515 93.6953 61.1472 92.891 60.5518 91.865C59.9692 90.8263 59.6778 89.661 59.6778 88.369C59.6778 87.077 59.9692 85.918 60.5518 84.892C61.1472 83.8533 61.9515 83.049 62.9648 82.479C63.9782 81.8963 65.0992 81.605 66.3278 81.605C67.5692 81.605 68.6965 81.8963 69.7098 82.479C70.7232 83.049 71.5212 83.847 72.1038 84.873C72.6865 85.899 72.9778 87.0643 72.9778 88.369C72.9778 89.6737 72.6865 90.839 72.1038 91.865C71.5212 92.891 70.7232 93.6953 69.7098 94.278C68.6965 94.848 67.5692 95.133 66.3278 95.133ZM66.3278 93.632C67.2525 93.632 68.0822 93.4167 68.8168 92.986C69.5642 92.5553 70.1468 91.941 70.5648 91.143C70.9955 90.345 71.2108 89.4203 71.2108 88.369C71.2108 87.305 70.9955 86.3803 70.5648 85.595C70.1468 84.797 69.5705 84.1827 68.8358 83.752C68.1012 83.3213 67.2652 83.106 66.3278 83.106C65.3905 83.106 64.5545 83.3213 63.8198 83.752C63.0852 84.1827 62.5025 84.797 62.0718 85.595C61.6538 86.3803 61.4448 87.305 61.4448 88.369C61.4448 89.4203 61.6538 90.345 62.0718 91.143C62.5025 91.941 63.0852 92.5553 63.8198 92.986C64.5672 93.4167 65.4032 93.632 66.3278 93.632ZM85.6724 95H83.9434L76.9894 84.455V95H75.2604V81.738H76.9894L83.9434 92.264V81.738H85.6724V95ZM96.7707 81.757V83.163H93.1607V95H91.4317V83.163H87.8027V81.757H96.7707ZM100.628 83.163V87.59H105.454V89.015H100.628V93.575H106.024V95H98.899V81.738H106.024V83.163H100.628ZM119.052 95H117.323L110.369 84.455V95H108.64V81.738H110.369L117.323 92.264V81.738H119.052V95ZM130.151 81.757V83.163H126.541V95H124.812V83.163H121.183V81.757H130.151Z" fill="white"/>
<circle cx="87.5843" cy="41.5843" r="22.5843" fill="#32073F"/>
<path d="M97.9359 30.2922V49.1124C97.9359 49.362 97.8367 49.6014 97.6603 49.7778C97.4838 49.9543 97.2444 50.0534 96.9949 50.0534H80.9977C80.4985 50.0534 80.0198 50.2517 79.6669 50.6047C79.3139 50.9576 79.1157 51.4363 79.1157 51.9355H95.1129C95.3624 51.9355 95.6018 52.0346 95.7782 52.2111C95.9547 52.3876 96.0539 52.6269 96.0539 52.8765C96.0539 53.126 95.9547 53.3654 95.7782 53.5419C95.6018 53.7183 95.3624 53.8175 95.1129 53.8175H78.1747C77.9251 53.8175 77.6857 53.7183 77.5093 53.5419C77.3328 53.3654 77.2336 53.126 77.2336 52.8765V33.1152C77.2336 32.117 77.6302 31.1596 78.3361 30.4537C79.042 29.7478 79.9994 29.3512 80.9977 29.3512H96.9949C97.2444 29.3512 97.4838 29.4503 97.6603 29.6268C97.8367 29.8033 97.9359 30.0426 97.9359 30.2922Z" fill="white"/>
</g>
<defs>
<filter id="filter0_d_267_3281" x="0" y="0.625" width="178" height="112.375" filterUnits="userSpaceOnUse" color-interpolation-filters="sRGB">
<feFlood flood-opacity="0" result="BackgroundImageFix"/>
<feColorMatrix in="SourceAlpha" type="matrix" values="0 0 0 0 0 0 0 0 0 0 0 0 0 0 0 0 0 0 127 0" result="hardAlpha"/>
<feOffset dx="2" dy="2"/>
<feGaussianBlur stdDeviation="0.5"/>
<feComposite in2="hardAlpha" operator="out"/>
<feColorMatrix type="matrix" values="0 0 0 0 0 0 0 0 0 0 0 0 0 0 0 0 0 0 1 0"/>
<feBlend mode="normal" in2="BackgroundImageFix" result="effect1_dropShadow_267_3281"/>
<feBlend mode="normal" in="SourceGraphic" in2="effect1_dropShadow_267_3281" result="shape"/>
</filter>
</defs>
</svg>
