<svg width="388" height="289" viewBox="0 0 388 289" fill="none" xmlns="http://www.w3.org/2000/svg">
<g clip-path="url(#clip0_267_3298)">
<rect width="392" height="369" rx="15" fill="#EC704B"/>
<path d="M423.988 194.861L423.079 194.134C404.759 179.748 380.915 172.583 357.071 172.527C374.202 158.756 384.691 139.78 384.621 118.845C358.469 118.789 334.765 127.186 317.564 140.9C317.494 121.476 308.194 102.108 289.594 87.3302C271.064 102.108 261.694 121.476 261.624 140.9C244.423 127.186 220.719 118.789 194.567 118.845C194.497 139.78 204.986 158.756 222.117 172.527C197.854 172.583 173.66 180.028 155.2 194.917C173.66 209.751 197.854 217.252 222.117 217.308C205.336 230.854 194.847 249.383 194.567 269.926V270.99H195.896C221.558 270.766 244.773 262.369 261.624 248.935C261.694 268.023 270.715 287.055 288.615 301.777L289.524 302.505L290.433 301.777C308.404 287.111 317.424 268.023 317.424 248.935C334.346 262.369 357.49 270.766 383.153 270.99H384.481V269.926C384.202 249.383 373.713 230.799 356.931 217.308C380.775 217.252 404.549 210.031 422.939 195.701L423.988 194.861Z" fill="#FF5A28"/>
<path d="M407.119 195.319L406.328 194.686C390.384 182.166 369.632 175.93 348.881 175.881C363.79 163.897 372.919 147.382 372.858 129.162C350.098 129.114 329.468 136.421 314.498 148.357C314.437 131.452 306.344 114.596 290.156 101.735C274.03 114.596 265.875 131.452 265.815 148.357C250.844 136.421 230.215 129.114 207.455 129.162C207.394 147.382 216.522 163.897 231.432 175.881C210.315 175.93 189.26 182.409 173.194 195.368C189.26 208.277 210.315 214.805 231.432 214.854C216.827 226.643 207.699 242.768 207.455 260.647V261.573H208.611C230.945 261.378 251.149 254.071 265.815 242.379C265.875 258.991 273.726 275.554 289.304 288.367L290.096 289L290.887 288.367C306.526 275.603 314.376 258.991 314.376 242.379C329.103 254.071 349.246 261.378 371.58 261.573H372.736V260.647C372.493 242.768 363.364 226.595 348.759 214.854C369.511 214.805 390.201 208.521 406.206 196.05L407.119 195.319Z" fill="#FF4710"/>
</g>
<defs>
<clipPath id="clip0_267_3298">
<rect width="388" height="289" rx="38" fill="white"/>
</clipPath>
</defs>
</svg>
