<svg width="389" height="289" viewBox="0 0 389 289" fill="none" xmlns="http://www.w3.org/2000/svg">
<g clip-path="url(#clip0_267_3308)">
<rect width="392" height="369" rx="15" fill="#D2FF1F"/>
<path d="M302.347 142.796C286.774 149.943 268.343 143.109 261.138 127.515C249.067 101.216 217.885 89.6534 191.587 101.724C165.288 113.794 153.725 144.976 165.796 171.275C172.943 186.847 166.109 205.278 150.515 212.484C124.216 224.554 112.653 255.736 124.724 282.034C136.794 308.333 167.976 319.896 194.275 307.825C209.847 300.678 228.278 307.513 235.484 323.107C247.554 349.405 278.736 360.968 305.034 348.897C331.333 336.827 342.896 305.645 330.825 279.347C323.678 263.774 330.512 245.343 346.106 238.138C372.405 226.067 383.968 194.885 371.897 168.587C359.827 142.288 328.703 130.747 302.347 142.796Z" fill="#95BB00"/>
<path d="M296.565 150.01C282.474 156.477 265.797 150.293 259.278 136.183C248.356 112.387 220.142 101.925 196.346 112.847C172.551 123.768 162.088 151.983 173.01 175.778C179.477 189.869 173.293 206.545 159.183 213.065C135.387 223.987 124.925 252.201 135.847 275.997C146.768 299.792 174.983 310.255 198.778 299.333C212.869 292.866 229.545 299.05 236.065 313.16C246.987 336.955 275.201 347.418 298.997 336.496C322.792 325.574 333.255 297.36 322.333 273.565C315.866 259.474 322.05 242.797 336.16 236.278C359.955 225.356 370.418 197.142 359.496 173.346C348.574 149.551 320.413 139.108 296.565 150.01Z" fill="#84A501"/>
</g>
<defs>
<clipPath id="clip0_267_3308">
<rect width="389" height="289" rx="38" fill="white"/>
</clipPath>
</defs>
</svg>
