<svg width="389" height="289" viewBox="0 0 389 289" fill="none" xmlns="http://www.w3.org/2000/svg">
<g clip-path="url(#clip0_267_3287)">
<rect width="389" height="369" rx="15" fill="#CEBCFF"/>
<path d="M247 122.546C261.911 100.806 295.966 111.877 295.21 138.197C320.046 129.39 341.103 158.327 325.033 179.161C350.322 186.61 350.322 222.39 325.033 229.839C341.103 250.723 320.046 279.66 295.21 270.803C295.916 297.123 261.861 308.194 247 286.454C232.089 308.194 198.034 297.123 198.79 270.803C173.954 279.61 152.897 250.673 168.967 229.839C143.678 222.39 143.678 186.61 168.967 179.161C152.897 158.277 173.954 129.34 198.79 138.197C198.034 111.877 232.089 100.806 247 122.546Z" fill="#9D76F3"/>
<path d="M247 135.632C259.452 117.496 287.889 126.732 287.258 148.689C307.997 141.342 325.581 165.481 312.162 182.862C333.279 189.075 333.279 218.925 312.162 225.138C325.581 242.561 307.997 266.7 287.258 259.312C287.847 281.268 259.41 290.504 247 272.368C234.548 290.504 206.111 281.268 206.742 259.312C186.003 266.658 168.419 242.519 181.838 225.138C160.721 218.925 160.721 189.075 181.838 182.862C168.419 165.439 186.003 141.3 206.742 148.689C206.111 126.732 234.548 117.496 247 135.632Z" fill="#885AEF"/>
</g>
<defs>
<clipPath id="clip0_267_3287">
<rect width="389" height="289" rx="38" fill="white"/>
</clipPath>
</defs>
</svg>
