<svg width="179" height="113" viewBox="0 0 179 113" fill="none" xmlns="http://www.w3.org/2000/svg">
<g filter="url(#filter0_d_267_3274)">
<rect x="0.5" y="0.625" width="175" height="109.375" rx="15" fill="#211951"/>
<path d="M65.809 82.595C65.4416 81.8223 64.9096 81.227 64.213 80.809C63.5163 80.3783 62.7056 80.163 61.781 80.163C60.8563 80.163 60.0203 80.3783 59.273 80.809C58.5383 81.227 57.9556 81.835 57.525 82.633C57.107 83.4183 56.898 84.3303 56.898 85.369C56.898 86.4077 57.107 87.3197 57.525 88.105C57.9556 88.8903 58.5383 89.4983 59.273 89.929C60.0203 90.347 60.8563 90.556 61.781 90.556C63.073 90.556 64.137 90.1697 64.973 89.397C65.809 88.6243 66.2966 87.5793 66.436 86.262H61.154V84.856H68.279V86.186C68.1776 87.2753 67.8356 88.276 67.253 89.188C66.6703 90.0873 65.904 90.803 64.954 91.335C64.004 91.8543 62.9463 92.114 61.781 92.114C60.5523 92.114 59.4313 91.829 58.418 91.259C57.4046 90.6763 56.6003 89.872 56.005 88.846C55.4223 87.82 55.131 86.661 55.131 85.369C55.131 84.077 55.4223 82.918 56.005 81.892C56.6003 80.8533 57.4046 80.049 58.418 79.479C59.4313 78.8963 60.5523 78.605 61.781 78.605C63.187 78.605 64.4283 78.9533 65.505 79.65C66.5943 80.3467 67.386 81.3283 67.88 82.595H65.809ZM72.2941 78.757V92H70.5651V78.757H72.2941ZM83.3918 78.757V80.163H79.7818V92H78.0528V80.163H74.4238V78.757H83.3918ZM95.7231 78.757V92H93.9941V85.996H87.2491V92H85.5201V78.757H87.2491V84.571H93.9941V78.757H95.7231ZM100.366 78.757V87.136C100.366 88.314 100.651 89.188 101.221 89.758C101.804 90.328 102.608 90.613 103.634 90.613C104.648 90.613 105.439 90.328 106.009 89.758C106.592 89.188 106.883 88.314 106.883 87.136V78.757H108.612V87.117C108.612 88.219 108.391 89.15 107.947 89.91C107.504 90.6573 106.902 91.2147 106.142 91.582C105.395 91.9493 104.553 92.133 103.615 92.133C102.678 92.133 101.829 91.9493 101.069 91.582C100.322 91.2147 99.7267 90.6573 99.2834 89.91C98.8527 89.15 98.6374 88.219 98.6374 87.117V78.757H100.366ZM118.128 85.179C118.609 85.255 119.046 85.4513 119.439 85.768C119.844 86.0847 120.161 86.4773 120.389 86.946C120.629 87.4147 120.75 87.915 120.75 88.447C120.75 89.1183 120.579 89.7263 120.237 90.271C119.895 90.803 119.394 91.2273 118.736 91.544C118.09 91.848 117.323 92 116.437 92H111.497V78.757H116.247C117.146 78.757 117.912 78.909 118.546 79.213C119.179 79.5043 119.654 79.9033 119.971 80.41C120.287 80.9167 120.446 81.4867 120.446 82.12C120.446 82.9053 120.23 83.5577 119.8 84.077C119.382 84.5837 118.824 84.951 118.128 85.179ZM113.226 84.476H116.133C116.943 84.476 117.57 84.286 118.014 83.906C118.457 83.526 118.679 83.0003 118.679 82.329C118.679 81.6577 118.457 81.132 118.014 80.752C117.57 80.372 116.931 80.182 116.095 80.182H113.226V84.476ZM116.285 90.575C117.146 90.575 117.817 90.3723 118.299 89.967C118.78 89.5617 119.021 88.998 119.021 88.276C119.021 87.5413 118.767 86.965 118.261 86.547C117.754 86.1163 117.076 85.901 116.228 85.901H113.226V90.575H116.285Z" fill="white"/>
<ellipse cx="87.5843" cy="41.2303" rx="22.5843" ry="28.2303" fill="#32073F"/>
<path fill-rule="evenodd" clip-rule="evenodd" d="M88.4881 22.0337C80.5023 22.0337 74.0342 30.1189 74.0342 40.1011C74.0342 48.0959 78.1716 54.8486 83.9171 57.2426C84.6398 57.4007 84.9108 56.8586 84.9108 56.3844C84.9108 55.9553 84.8927 54.5325 84.8927 53.0193C81.2611 53.8549 80.3216 51.9127 80.0326 50.8964C79.87 50.3769 79.1653 48.7735 78.551 48.3444C78.0451 48.0056 77.3224 47.17 78.533 47.1474C79.6712 47.1248 80.4842 48.4573 80.7553 48.9993C82.0561 51.732 84.1339 50.9641 84.965 50.4899C85.0914 49.3155 85.4709 48.525 85.8864 48.0734C82.6704 47.6217 79.3099 46.0634 79.3099 39.1526C79.3099 37.1877 79.87 35.5617 80.7914 34.2969C80.6469 33.8453 80.141 31.9934 80.9359 29.5091C80.9359 29.5091 82.1464 29.0348 84.9108 31.361C86.0671 30.9545 87.2957 30.7512 88.5242 30.7512C89.7528 30.7512 90.9814 30.9545 92.1377 31.361C94.902 29.0122 96.1126 29.5091 96.1126 29.5091C96.9075 31.9934 96.4016 33.8453 96.2571 34.2969C97.1785 35.5617 97.7386 37.1652 97.7386 39.1526C97.7386 46.0859 94.36 47.6217 91.144 48.0734C91.668 48.638 92.1197 49.722 92.1197 51.4158C92.1197 53.8323 92.1016 55.7746 92.1016 56.3844C92.1016 56.8586 92.3726 57.4232 93.0953 57.2426C98.8046 54.8486 102.942 48.0734 102.942 40.1011C102.942 30.1189 96.4739 22.0337 88.4881 22.0337Z" fill="white"/>
</g>
<defs>
<filter id="filter0_d_267_3274" x="0.5" y="0.625" width="178" height="112.375" filterUnits="userSpaceOnUse" color-interpolation-filters="sRGB">
<feFlood flood-opacity="0" result="BackgroundImageFix"/>
<feColorMatrix in="SourceAlpha" type="matrix" values="0 0 0 0 0 0 0 0 0 0 0 0 0 0 0 0 0 0 127 0" result="hardAlpha"/>
<feOffset dx="2" dy="2"/>
<feGaussianBlur stdDeviation="0.5"/>
<feComposite in2="hardAlpha" operator="out"/>
<feColorMatrix type="matrix" values="0 0 0 0 0 0 0 0 0 0 0 0 0 0 0 0 0 0 1 0"/>
<feBlend mode="normal" in2="BackgroundImageFix" result="effect1_dropShadow_267_3274"/>
<feBlend mode="normal" in="SourceGraphic" in2="effect1_dropShadow_267_3274" result="shape"/>
</filter>
</defs>
</svg>
