<svg width="65" height="36" viewBox="0 0 65 36" fill="none" xmlns="http://www.w3.org/2000/svg">
<path fill-rule="evenodd" clip-rule="evenodd" d="M7 6.5C7 5.67157 8.31296 5 9.93258 5H62.0674C63.687 5 65 5.67157 65 6.5C65 7.32843 63.687 8 62.0674 8H9.93258C8.31296 8 7 7.32843 7 6.5Z" fill="black"/>
<path fill-rule="evenodd" clip-rule="evenodd" d="M7 18C7 17.4477 8.04132 17 9.32584 17H50.6742C51.9587 17 53 17.4477 53 18C53 18.5523 51.9587 19 50.6742 19H9.32584C8.04132 19 7 18.5523 7 18Z" fill="black"/>
<path fill-rule="evenodd" clip-rule="evenodd" d="M7 29.5C7 28.6716 8.31296 28 9.93258 28H62.0674C63.687 28 65 28.6716 65 29.5C65 30.3284 63.687 31 62.0674 31H9.93258C8.31296 31 7 30.3284 7 29.5Z" fill="black"/>
</svg>
